SplineFontDB: 3.2
FontName: Untitled2
FullName: Untitled2
FamilyName: Untitled2
Weight: Regular
Copyright: Copyright (c) 2023, Student
UComments: "2023-2-8: Created with FontForge (http://fontforge.org)"
Version: 001.000
ItalicAngle: 0
UnderlinePosition: -100
UnderlineWidth: 50
Ascent: 800
Descent: 200
InvalidEm: 0
LayerCount: 2
Layer: 0 0 "Back" 1
Layer: 1 0 "Fore" 0
XUID: [1021 1022 992953733 18683]
OS2Version: 0
OS2_WeightWidthSlopeOnly: 0
OS2_UseTypoMetrics: 1
CreationTime: 1675872440
ModificationTime: 1675877657
OS2TypoAscent: 0
OS2TypoAOffset: 1
OS2TypoDescent: 0
OS2TypoDOffset: 1
OS2TypoLinegap: 0
OS2WinAscent: 0
OS2WinAOffset: 1
OS2WinDescent: 0
OS2WinDOffset: 1
HheadAscent: 0
HheadAOffset: 1
HheadDescent: 0
HheadDOffset: 1
OS2Vendor: 'PfEd'
DEI: 91125
Encoding: ISO8859-1
UnicodeInterp: none
NameList: AGL For New Fonts
DisplaySize: -48
AntiAlias: 1
FitToEm: 0
WinInfo: 0 58 20
Grid
772.357421875 1300.00097656 m 0
 772.357421875 -699.999023438 l 1024
  Spiro
    772.357 1300 {
    772.357 -699.999 o
    0 0 z
  EndSpiro
  Named: "Center_Line"
74.93359375 281 m 1
 74.93359375 319.447265625 l 1
 1469.97363281 319.447265625 l 1
 1469.97363281 281 l 1
 74.93359375 281 l 1
  Spiro
    74.9336 281 v
    74.9336 319.447 v
    1469.97 319.447 v
    1469.97 281 v
    0 0 z
  EndSpiro
347.329101562 569.350585938 m 1
 1197.57910156 569.350585938 l 1025
  Spiro
    347.329 569.351 {
    1197.58 569.351 v
    0 0 z
  EndSpiro
772.357421875 800.03125 m 1
 772.357421875 -199.96875 l 1025
  Spiro
    772.357 800.031 {
    772.357 -199.969 v
    0 0 z
  EndSpiro
347.329101562 31.48046875 m 1
 1197.57910156 31.48046875 l 1025
  Spiro
    347.329 31.4805 {
    1197.58 31.4805 v
    0 0 z
  EndSpiro
1544.88269043 1300 m 0
 1544.88269043 -700 l 1024
  Named: "Right"
-1000 281 m 0
 2000 281 l 1024
  Spiro
    -1000 281 {
    2000 281 o
    0 0 z
  EndSpiro
  Named: "MidLine_Low"
EndSplineSet
BeginChars: 256 27

StartChar: A
Encoding: 65 65 1
Width: 1544
Flags: HW
LayerCount: 2
Fore
SplineSet
1544.88183594 319 m 1
 1544.88183594 281 l 1
 830.489257812 281 l 2
 824.217773438 262.185546875 809.20703125 247.564453125 790.20703125 241.6640625 c 2
 781.653320312 -198.564453125 l 1
 763.228515625 -198.564453125 l 1
 759.053710938 11.3818359375 l 1
 352.260742188 11.3818359375 l 1
 335.54296875 39.3251953125 l 1
 465.5 281 l 1
 0 281 l 1
 0 319 l 1
 486.021484375 319 l 1
 753.357421875 807.489257812 l 1
 786.978515625 806.9140625 l 1
 1036.07519531 319 l 1
 1544.88183594 319 l 1
769.314453125 757.70703125 m 1
 529.142578125 319 l 1
 714.20703125 319 l 2
 722.37109375 343.510742188 744.989257812 361.360351562 772.357421875 361.360351562 c 0
 799.70703125 361.360351562 822.510742188 343.510742188 830.489257812 319 c 2
 993.325195312 319 l 1
 769.314453125 757.70703125 l 1
383.989257812 49.3818359375 m 1
 758.29296875 49.3818359375 l 1
 754.489257812 241.6640625 l 2
 735.303710938 247.360351562 720.478515625 262.185546875 714.20703125 281 c 2
 508.435546875 281 l 1
 383.989257812 49.3818359375 l 1
EndSplineSet
EndChar

StartChar: B
Encoding: 66 66 2
Width: 1544
Flags: HW
LayerCount: 2
Fore
SplineSet
1544.69628906 318.999023438 m 1
 1544.90039062 318.999023438 l 1
 1544.90039062 280.999023438 l 1
 1079.5859375 280.999023438 l 1
 1209.35742188 39.32421875 l 1
 1192.63964844 11.3994140625 l 1
 788.5 11.3994140625 l 1
 781.857421875 -425.600585938 l 1
 763.04296875 -425.600585938 l 1
 751.446289062 11.3994140625 l 1
 352.260742188 11.3994140625 l 1
 335.54296875 39.32421875 l 1
 465.314453125 280.999023438 l 1
 -0.185546875 280.999023438 l 1
 -0.185546875 318.999023438 l 1
 714.021484375 318.999023438 l 2
 722.185546875 343.509765625 744.803710938 361.377929688 772.171875 361.377929688 c 0
 799.521484375 361.377929688 822.325195312 343.509765625 830.303710938 318.999023438 c 2
 1544.69628906 318.999023438 l 1
1160.70703125 49.3994140625 m 1
 1160.91113281 49.3994140625 l 1
 1036.44628906 280.999023438 l 1
 830.489257812 280.999023438 l 2
 822.325195312 256.506835938 799.70703125 238.638671875 772.357421875 238.638671875 c 0
 744.989257812 238.638671875 722.185546875 256.506835938 714.20703125 280.999023438 c 2
 508.435546875 280.999023438 l 1
 383.989257812 49.3994140625 l 1
 1160.70703125 49.3994140625 l 1
EndSplineSet
EndChar

StartChar: C
Encoding: 67 67 3
Width: 1544
InSpiro: 1
Flags: HW
LayerCount: 2
Fore
SplineSet
1061.53222656 318.999023438 m 1
 1061.53222656 318.813476562 l 1
 1544.69628906 318.813476562 l 1
 1544.69628906 280.813476562 l 1
 1065.52148438 280.813476562 l 1
 788.685546875 -205.783203125 l 1
 782.803710938 -462.09765625 l 1
 761.911132812 -462.09765625 l 1
 750.889648438 -196.654296875 l 1
 485.650390625 280.813476562 l 1
 -0.185546875 280.813476562 l 1
 -0.185546875 318.813476562 l 1
 714.021484375 318.813476562 l 2
 722.185546875 343.32421875 744.803710938 361.173828125 772.171875 361.173828125 c 0
 799.521484375 361.173828125 822.325195312 343.32421875 830.303710938 318.813476562 c 2
 1018.02148438 318.813476562 l 1
 755.639648438 786.391601562 l 1
 788.685546875 805.020507812 l 1
 1061.53222656 318.999023438 l 1
  Spiro
    1061.53 318.999 v
    1061.53 318.813 v
    1544.7 318.813 v
    1544.7 280.813 v
    1065.52 280.813 v
    788.686 -205.783 v
    782.804 -462.098 v
    761.911 -462.098 v
    750.89 -196.654 v
    485.65 280.813 v
    -0.185547 280.813 v
    -0.185547 318.813 v
    714.021 318.813 ]
    726.627 340.671 o
    746.77 355.649 o
    772.172 361.174 o
    797.602 355.649 o
    817.781 340.671 o
    830.304 318.813 [
    1018.02 318.813 v
    755.64 786.392 v
    788.686 805.021 v
    0 0 z
  EndSpiro
772.54296875 -157.1328125 m 1
 772.728515625 -157.1328125 l 1
 1022.01074219 280.999023438 l 1
 830.489257812 280.999023438 l 2
 822.325195312 256.48828125 799.70703125 238.638671875 772.357421875 238.638671875 c 0
 744.989257812 238.638671875 722.185546875 256.48828125 714.20703125 280.999023438 c 2
 529.161132812 280.999023438 l 1
 772.54296875 -157.1328125 l 1
  Spiro
    772.543 -157.133 v
    772.729 -157.133 v
    1022.01 280.999 v
    830.489 280.999 ]
    817.884 259.142 o
    797.747 244.164 o
    772.357 238.639 o
    746.914 244.164 o
    726.731 259.142 o
    714.207 280.999 [
    529.161 280.999 v
    0 0 z
  EndSpiro
EndSplineSet
EndChar

StartChar: D
Encoding: 68 68 4
Width: 1545
Flags: HW
LayerCount: 2
Fore
SplineSet
1078.43554688 318.814453125 m 1
 1078.82519531 319.185546875 l 1
 1545.27148438 319.185546875 l 1
 1545.27148438 281.185546875 l 1
 830.87890625 281.185546875 l 2
 822.696289062 256.674804688 800.096679688 238.825195312 772.728515625 238.825195312 c 0
 745.37890625 238.825195312 722.575195312 256.674804688 714.596679688 281.185546875 c 2
 533.3359375 281.185546875 l 1
 789.446289062 -183.349609375 l 1
 791.728515625 -192.6640625 l 1
 781.096679688 -458.6640625 l 1
 763.228515625 -458.6640625 l 1
 753.9140625 -197.989257812 l 1
 489.825195312 281 l 1
 0 281 l 1
 0 319 l 1
 468.728515625 319 l 1
 335.54296875 560.489257812 l 1
 352.260742188 588.618164062 l 1
 751.260742188 588.618164062 l 1
 760.185546875 1025.04296875 l 1
 776.142578125 1025.04296875 l 1
 788.314453125 588.618164062 l 1
 1192.62109375 588.618164062 l 1
 1209.35742188 560.489257812 l 1
 1078.43554688 318.814453125 l 1
830.489257812 318.814453125 m 1
 830.303710938 318.814453125 l 1
 1035.12890625 318.814453125 l 1
 1160.70703125 550.4140625 l 1
 384.37890625 550.4140625 l 1
 512.053710938 318.814453125 l 1
 714.20703125 318.814453125 l 2
 722.37109375 343.325195312 744.989257812 361.174804688 772.357421875 361.174804688 c 0
 799.70703125 361.174804688 822.510742188 343.325195312 830.489257812 318.814453125 c 1
EndSplineSet
EndChar

StartChar: E
Encoding: 69 69 5
Width: 1544
Flags: HW
LayerCount: 2
Fore
SplineSet
1544.69628906 281 m 1
 1546.96875 281 l 5
 1057.14355469 281 l 5
 791.357421875 -197.989257812 l 1
 782.803710938 -458.849609375 l 1
 763.228515625 -458.849609375 l 1
 753.357421875 -192.849609375 l 1
 755.639648438 -183.53515625 l 1
 1011.75 281 l 1
 830.489257812 281 l 2
 822.325195312 256.489257812 799.70703125 238.639648438 772.357421875 238.639648438 c 0
 744.989257812 238.639648438 722.185546875 256.489257812 714.20703125 281 c 2
 -0.185546875 281 l 1
 -0.185546875 319 l 1
 466.075195312 319 l 1
 335.171875 560.489257812 l 1
 351.889648438 588.618164062 l 1
 1192.25 588.618164062 l 1
 1208.96777344 560.489257812 l 1
 1075.96777344 319 l 1
 1544.69628906 319 l 1
 1544.69628906 281 l 1
830.303710938 319 m 1
 830.118164062 319 l 1
 1032.27148438 319 l 1
 1159.94628906 550.618164062 l 1
 383.618164062 550.618164062 l 1
 509.196289062 319 l 1
 714.021484375 319 l 2
 722.185546875 343.510742188 744.803710938 361.37890625 772.171875 361.37890625 c 0
 799.521484375 361.37890625 822.325195312 343.510742188 830.303710938 319 c 1
EndSplineSet
EndChar

StartChar: F
Encoding: 70 70 6
Width: 1544
Flags: HW
LayerCount: 2
Fore
SplineSet
1544.67871094 319.204101562 m 5
 1544.8828125 319 l 5
 1544.8828125 281 l 5
 830.471679688 281 l 6
 822.307617188 256.489257812 799.689453125 238.639648438 772.33984375 238.639648438 c 4
 744.971679688 238.639648438 722.16796875 256.489257812 714.189453125 281 c 6
 507.67578125 281 l 5
 383.2109375 51.107421875 l 5
 772.154296875 51.107421875 l 5
 791.154296875 32.107421875 l 5
 780.893554688 -461.892578125 l 5
 763.600585938 -461.892578125 l 5
 753.7109375 13.107421875 l 5
 351.482421875 13.107421875 l 5
 334.764648438 41.2177734375 l 5
 464.536132812 281 l 5
 -0.203125 281 l 5
 -0.203125 319 l 5
 714.189453125 319 l 6
 722.372070312 343.510742188 744.971679688 361.37890625 772.33984375 361.37890625 c 4
 799.689453125 361.37890625 822.493164062 343.510742188 830.471679688 319 c 6
 1037.57910156 319 l 5
 1160.31835938 548.911132812 l 5
 772.33984375 548.911132812 l 5
 753.33984375 567.911132812 l 5
 763.971679688 795.911132812 l 5
 780.50390625 795.911132812 l 5
 790.393554688 586.911132812 l 5
 1191.86132812 586.911132812 l 5
 1208.57910156 558.967773438 l 5
 1080.51464844 319.204101562 l 5
 1544.67871094 319.204101562 l 5
EndSplineSet
EndChar

StartChar: G
Encoding: 71 71 7
Width: 1544
Flags: HW
LayerCount: 2
Fore
SplineSet
1544.49316406 319 m 1
 1544.8828125 319 l 1
 1544.8828125 281 l 1
 830.490234375 281 l 2
 822.307617188 256.489257812 799.708007812 238.62109375 772.33984375 238.62109375 c 0
 744.990234375 238.62109375 722.186523438 256.489257812 714.208007812 281 c 2
 508.807617188 281 l 1
 464.350585938 199.303710938 421.786132812 120.446289062 383.786132812 49.3818359375 c 1
 769.686523438 49.3818359375 l 1
 788.686523438 30.5859375 l 1
 778.611328125 -216.618164062 l 1
 765.8828125 -216.618164062 l 1
 751.818359375 11.3818359375 l 1
 352.057617188 11.3818359375 l 1
 335.33984375 39.3251953125 l 2
 373.915039062 111.892578125 418.372070312 194.739257812 465.296875 281 c 1
 -0.388671875 281 l 1
 -0.388671875 319 l 1
 485.447265625 319 l 1
 576.458007812 486.196289062 673.740234375 663.282226562 750.686523438 804.075195312 c 0
 758.479492188 880.631835938 760.186523438 957.967773438 760.557617188 1034.72851562 c 0
 760.743164062 1035.11816406 759.036132812 1035.30371094 750.296875 1035.67480469 c 1
 788.296875 1035.67480469 l 1
 778.796875 1034.9140625 778.036132812 1035.86035156 778.036132812 1033.78222656 c 0
 778.42578125 975.260742188 779.557617188 915.978515625 783.361328125 857.642578125 c 0
 784.8828125 839.79296875 786.014648438 821.739257812 787.92578125 803.87109375 c 2
 1035.68652344 319 l 1
 1544.49316406 319 l 1
768.92578125 757.521484375 m 1
 768.740234375 757.521484375 l 1
 696.915039062 626.228515625 611.025390625 469.478515625 528.958007812 318.814453125 c 1
 713.818359375 318.814453125 l 2
 721.982421875 343.325195312 744.600585938 361.174804688 771.96875 361.174804688 c 0
 799.318359375 361.174804688 822.122070312 343.325195312 830.100585938 318.814453125 c 2
 992.936523438 318.814453125 l 1
 768.92578125 757.521484375 l 1
EndSplineSet
EndChar

StartChar: H
Encoding: 72 72 8
Width: 1544
Flags: HW
LayerCount: 2
Fore
SplineSet
1544.8828125 281 m 1
 1544.8828125 281.185546875 l 1
 1060.77246094 281.185546875 l 1
 979.447265625 133.75 852.143554688 -92.54296875 791.154296875 -203.12890625 c 2
 780.336914062 -463.618164062 l 1
 764.565429688 -463.618164062 l 1
 753.543945312 -199.325195312 l 2
 745.17578125 -190.771484375 602.3046875 69.142578125 485.836914062 281.185546875 c 1
 0.0009765625 281.185546875 l 1
 0.0009765625 319.185546875 l 1
 464.369140625 319.185546875 l 1
 391.393554688 452 333.6328125 557.056640625 334.96875 553.252929688 c 1
 351.686523438 581.381835938 l 1
 753.915039062 581.381835938 l 1
 766.086914062 1018.38183594 l 1
 778.240234375 1018.38183594 l 1
 790.393554688 581.381835938 l 1
 1192.43652344 581.381835938 l 1
 1209.15429688 553.252929688 l 1
 1105.22949219 362.510742188 l 2
 1098.3828125 349.763671875 1090.40429688 334.95703125 1081.66503906 319 c 1
 1544.8828125 319 l 1
 1544.8828125 281 l 1
384.379882812 543.381835938 m 1
 384.17578125 543.381835938 l 1
 508.250976562 319 l 1
 714.208007812 319 l 2
 722.372070312 343.510742188 744.990234375 361.360351562 772.358398438 361.360351562 c 0
 799.708007812 361.360351562 822.51171875 343.510742188 830.490234375 319 c 2
 1037.96875 319 l 1
 1081.86914062 398.78515625 1123.85839844 475.360351562 1160.70800781 543.381835938 c 1
 384.379882812 543.381835938 l 1
772.543945312 -158.671875 m 1
 844.5546875 -29.4755859375 933.283203125 129.556640625 1017.07617188 281.185546875 c 1
 830.67578125 281.185546875 l 2
 822.51171875 256.674804688 799.893554688 238.806640625 772.543945312 238.806640625 c 0
 745.17578125 238.806640625 722.372070312 256.674804688 714.393554688 281.185546875 c 2
 529.34765625 281.185546875 l 1
 772.543945312 -158.671875 l 1
EndSplineSet
EndChar

StartChar: I
Encoding: 73 73 9
Width: 1544
Flags: HW
LayerCount: 2
Fore
SplineSet
1544.8828125 319.185546875 m 1
 1544.8828125 319 l 1
 1544.8828125 281 l 1
 830.490234375 281 l 2
 824.21875 261.814453125 808.836914062 246.989257812 789.447265625 241.29296875 c 2
 775.586914062 -195.70703125 l 1
 760.76171875 -195.70703125 l 1
 754.3046875 241.6640625 l 2
 735.3046875 247.564453125 720.479492188 262.185546875 714.393554688 281 c 2
 0.0009765625 281 l 1
 0.0009765625 319 l 1
 485.836914062 319 l 1
 749.369140625 801.032226562 l 1
 757.533203125 1060.18554688 l 1
 778.629882812 1060.18554688 l 1
 786.979492188 801.217773438 l 1
 1058.87988281 319.185546875 l 1
 1544.8828125 319.185546875 l 1
768.369140625 756.760742188 m 1
 768.165039062 756.760742188 l 1
 528.958007812 319 l 1
 714.208007812 319 l 2
 722.372070312 343.510742188 744.990234375 361.360351562 772.358398438 361.360351562 c 0
 799.708007812 361.360351562 822.51171875 343.510742188 830.490234375 319 c 2
 1015.16503906 319 l 1
 768.369140625 756.760742188 l 1
EndSplineSet
EndChar

StartChar: J
Encoding: 74 74 10
Width: 1544
Flags: HW
LayerCount: 2
Fore
SplineSet
1544.8828125 281 m 5
 1544.8828125 281.185546875 l 5
 1058.87988281 281.185546875 l 5
 786.979492188 -201.032226562 l 5
 777.108398438 -460 l 5
 759.0546875 -460 l 5
 749.369140625 -201.032226562 l 5
 485.836914062 281 l 5
 0.0009765625 281 l 5
 0.0009765625 319 l 5
 714.208007812 319 l 6
 720.293945312 337.610351562 734.915039062 352.25 753.729492188 358.131835938 c 6
 758.479492188 795.892578125 l 5
 777.479492188 795.892578125 l 5
 789.6328125 358.521484375 l 6
 809.022460938 352.806640625 824.21875 338 830.490234375 319 c 6
 1544.8828125 319 l 5
 1544.8828125 281 l 5
768.369140625 -156.760742188 m 5
 768.5546875 -156.760742188 l 5
 1015.36914062 281 l 5
 830.67578125 281 l 6
 822.51171875 256.489257812 799.893554688 238.62109375 772.543945312 238.62109375 c 4
 745.17578125 238.62109375 722.372070312 256.489257812 714.393554688 281 c 6
 529.143554688 281 l 5
 768.369140625 -156.760742188 l 5
EndSplineSet
EndChar

StartChar: K
Encoding: 75 75 11
Width: 1544
Flags: HW
LayerCount: 2
Fore
SplineSet
1545.06835938 319 m 1
 1544.8828125 319 l 1
 1544.8828125 281 l 1
 1056.20800781 281 l 1
 1186.16503906 38.3603515625 l 1
 1169.44726562 10.435546875 l 1
 770.057617188 11.3818359375 l 1
 352.447265625 11.3818359375 l 1
 335.729492188 39.3251953125 l 1
 465.686523438 281 l 1
 0.1865234375 281 l 1
 0.1865234375 319 l 1
 486.208007812 319 l 1
 753.543945312 807.489257812 l 1
 787.165039062 806.9140625 l 1
 1036.26171875 319 l 1
 1545.06835938 319 l 1
769.500976562 757.70703125 m 1
 529.329101562 319 l 1
 714.393554688 319 l 2
 722.557617188 343.510742188 745.17578125 361.360351562 772.543945312 361.360351562 c 0
 799.893554688 361.360351562 822.697265625 343.510742188 830.67578125 319 c 2
 993.51171875 319 l 1
 769.500976562 757.70703125 l 1
1137.71875 48.435546875 m 1
 1137.90429688 48.25 l 1
 1013.27246094 280.814453125 l 1
 830.67578125 280.814453125 l 2
 822.51171875 256.303710938 799.893554688 238.435546875 772.543945312 238.435546875 c 0
 745.17578125 238.435546875 722.372070312 256.303710938 714.393554688 280.814453125 c 2
 508.622070312 280.814453125 l 1
 384.17578125 49.1962890625 l 1
 1137.71875 48.435546875 l 1
EndSplineSet
EndChar

StartChar: L
Encoding: 76 76 12
Width: 1544
Flags: HW
LayerCount: 2
Fore
SplineSet
1544.67871094 319.204101562 m 1
 1544.8828125 319 l 1
 1544.8828125 281 l 1
 1056.95019531 281 l 1
 788.296875 -206.9140625 l 1
 787.721679688 -206.9140625 l 1
 785.068359375 -458.478515625 l 1
 762.83984375 -458.478515625 l 1
 759.982421875 -191.717773438 l 1
 754.861328125 -188.860351562 l 1
 759.796875 -179.75 l 1
 755.41796875 241.478515625 l 2
 735.861328125 246.989257812 720.4609375 262 714.189453125 281.204101562 c 2
 -0.203125 281.204101562 l 1
 -0.203125 319.204101562 l 1
 464.721679688 319.204101562 l 1
 335.7109375 559.171875 l 1
 352.428710938 587.096679688 l 1
 1192.80761719 587.096679688 l 1
 1209.52539062 558.967773438 l 1
 1077.67578125 319.204101562 l 1
 1544.67871094 319.204101562 l 1
384.17578125 549.096679688 m 2
 507.67578125 319.204101562 l 1
 714.00390625 319.204101562 l 2
 722.16796875 343.71484375 744.786132812 361.564453125 772.154296875 361.564453125 c 0
 799.50390625 361.564453125 822.307617188 343.71484375 830.286132812 319.204101562 c 2
 1034.16503906 319.204101562 l 1
 1160.68945312 549.096679688 l 1
 384.17578125 549.096679688 l 2
788.482421875 -127.685546875 m 1
 788.296875 -127.685546875 l 1
 1013.25390625 281.204101562 l 1
 830.286132812 281.204101562 l 2
 824.404296875 262.96484375 810.33984375 248.71484375 792.286132812 242.443359375 c 2
 788.482421875 -127.685546875 l 1
EndSplineSet
EndChar

StartChar: M
Encoding: 77 77 13
Width: 1544
Flags: HW
LayerCount: 2
Fore
SplineSet
1544.8828125 319 m 1
 1544.8828125 281 l 1
 1079.77246094 281 l 1
 1209.35839844 43.5 l 1
 1192.62207031 15.37109375 l 1
 790.96875 15.37109375 l 1
 781.09765625 -460.185546875 l 1
 763.8046875 -460.185546875 l 1
 753.915039062 15.37109375 l 1
 352.26171875 15.37109375 l 1
 335.543945312 43.5 l 1
 465.129882812 281 l 1
 0.0009765625 281 l 1
 0.0009765625 319 l 1
 465.129882812 319 l 1
 335.543945312 556.87109375 l 1
 352.26171875 585 l 1
 754.3046875 585 l 1
 763.8046875 794 l 1
 781.09765625 794 l 1
 790.59765625 585 l 1
 1192.62207031 585 l 1
 1209.35839844 556.87109375 l 1
 1079.77246094 319 l 1
 1544.8828125 319 l 1
384.17578125 547 m 1
 383.990234375 547 l 1
 508.250976562 319 l 1
 714.208007812 319 l 2
 722.372070312 343.510742188 744.990234375 361.37890625 772.358398438 361.37890625 c 0
 799.708007812 361.37890625 822.51171875 343.510742188 830.490234375 319 c 2
 1036.44726562 319 l 1
 1160.70800781 547 l 1
 384.17578125 547 l 1
1160.70800781 53.37109375 m 1
 1160.89355469 53.37109375 l 1
 1036.6328125 281 l 1
 830.67578125 281 l 2
 822.51171875 256.489257812 799.893554688 238.62109375 772.543945312 238.62109375 c 0
 745.17578125 238.62109375 722.372070312 256.489257812 714.393554688 281 c 2
 508.436523438 281 l 1
 384.17578125 53.37109375 l 1
 1160.70800781 53.37109375 l 1
EndSplineSet
EndChar

StartChar: N
Encoding: 78 78 14
Width: 1544
Flags: HW
LayerCount: 2
Fore
SplineSet
1544.88183594 319.185546875 m 1
 1544.51074219 319 l 1
 1544.51074219 281 l 1
 1079.19628906 281 l 1
 1209.15332031 39.3251953125 l 1
 1192.43554688 11.3818359375 l 1
 786.79296875 11.3818359375 l 1
 780.131835938 -426.75 l 1
 764.37890625 -426.75 l 1
 757.717773438 11.3818359375 l 1
 352.075195312 11.3818359375 l 1
 335.357421875 39.3251953125 l 1
 465.314453125 281 l 1
 0 281 l 1
 0 319 l 1
 714.20703125 319 l 2
 720.478515625 338 735.489257812 352.62109375 754.489257812 358.521484375 c 2
 763.04296875 798.75 l 1
 781.467773438 798.75 l 1
 790.20703125 358.521484375 l 2
 809.392578125 352.825195312 824.217773438 338 830.489257812 319.185546875 c 2
 1544.88183594 319.185546875 l 1
383.989257812 49.5859375 m 1
 383.803710938 49.5859375 l 1
 757.142578125 49.5859375 l 1
 754.303710938 241.868164062 l 2
 735.303710938 247.75 720.29296875 262.37109375 714.20703125 281.185546875 c 2
 508.435546875 281.185546875 l 1
 383.989257812 49.5859375 l 1
1160.89257812 49.5859375 m 1
 1160.70703125 49.5859375 l 1
 1036.26074219 281.185546875 l 1
 830.303710938 281.185546875 l 2
 824.032226562 262.37109375 809.20703125 247.75 790.392578125 241.868164062 c 2
 787.553710938 49.5859375 l 1
 1160.89257812 49.5859375 l 1
EndSplineSet
EndChar

StartChar: O
Encoding: 79 79 15
Width: 1545
Flags: HW
LayerCount: 2
Fore
SplineSet
1544.88183594 319 m 1
 1545.0859375 319 l 1
 1545.0859375 281 l 1
 830.674804688 281 l 2
 822.510742188 256.489257812 799.892578125 238.62109375 772.54296875 238.62109375 c 0
 745.174804688 238.62109375 722.37109375 256.489257812 714.392578125 281 c 2
 522.87109375 281 l 1
 788.87109375 -170.639648438 l 1
 791.54296875 -180.325195312 l 1
 781.467773438 -463.803710938 l 1
 763.618164062 -463.803710938 l 1
 753.728515625 -185.8359375 l 1
 478.803710938 281 l 1
 -0 281 l 1
 -0 319 l 1
 456.185546875 319 l 1
 314.446289062 559.524414062 l 1
 330.79296875 588.228515625 l 1
 754.303710938 588.228515625 l 1
 766.271484375 1018.38183594 l 1
 778.424804688 1018.38183594 l 1
 791.357421875 549.653320312 l 1
 753.357421875 549.653320312 l 1
 753.357421875 550.228515625 l 1
 364.04296875 550.228515625 l 1
 500.271484375 319 l 1
 714.20703125 319 l 2
 722.37109375 343.510742188 744.989257812 361.360351562 772.357421875 361.360351562 c 0
 799.70703125 361.360351562 822.510742188 343.510742188 830.489257812 319 c 2
 1544.88183594 319 l 1
EndSplineSet
EndChar

StartChar: P
Encoding: 80 80 16
Width: 1544
Flags: HW
LayerCount: 2
Fore
SplineSet
1544.88183594 319 m 1
 1544.69628906 319 l 1
 1544.69628906 281 l 1
 830.303710938 281 l 2
 824.607421875 263.70703125 811.674804688 249.642578125 794.771484375 243 c 2
 788.5 -190.400390625 l 1
 764.935546875 -190.400390625 l 1
 758.6640625 240.328125 l 2
 737.771484375 245.078125 721.053710938 260.6640625 714.392578125 281 c 2
 0 281 l 1
 0 319 l 1
 471.771484375 319 l 1
 339.903320312 564.274414062 l 1
 356.62109375 592.217773438 l 1
 754.489257812 592.217773438 l 1
 763.803710938 799.12109375 l 1
 781.282226562 799.12109375 l 1
 790.596679688 592.217773438 l 1
 1197 592.217773438 l 1
 1213.71777344 564.274414062 l 1
 1081.86816406 319 l 1
 1544.88183594 319 l 1
388.368164062 554.217773438 m 1
 388.553710938 554.217773438 l 1
 514.892578125 319 l 1
 714.392578125 319 l 2
 722.575195312 343.4921875 745.174804688 361.360351562 772.54296875 361.360351562 c 0
 799.892578125 361.360351562 822.696289062 343.4921875 830.674804688 319 c 2
 1038.9140625 319 l 1
 1165.27148438 554.217773438 l 1
 388.368164062 554.217773438 l 1
EndSplineSet
EndChar

StartChar: Q
Encoding: 81 81 17
Width: 1544
Flags: HW
LayerCount: 2
Fore
SplineSet
1544.88183594 281 m 1
 1545.0859375 281 l 1
 1066.28222656 281 l 1
 791.357421875 -185.8359375 l 1
 779.37109375 -463.803710938 l 1
 765.696289062 -463.803710938 l 1
 753.54296875 -180.325195312 l 1
 756.196289062 -170.639648438 l 1
 1022.19628906 281 l 1
 830.674804688 281 l 2
 822.510742188 256.489257812 799.892578125 238.62109375 772.54296875 238.62109375 c 0
 745.174804688 238.62109375 722.37109375 256.489257812 714.392578125 281 c 2
 -0 281 l 1
 -0 319 l 1
 714.021484375 319 l 2
 722.185546875 343.510742188 744.803710938 361.360351562 772.153320312 361.360351562 c 0
 799.521484375 361.360351562 822.325195312 343.510742188 830.303710938 319 c 2
 1044.23925781 319 l 1
 1180.46777344 550.228515625 l 1
 791.357421875 550.228515625 l 1
 791.357421875 549.653320312 l 1
 753.357421875 549.653320312 l 1
 766.271484375 1018.38183594 l 1
 778.424804688 1018.38183594 l 1
 790.392578125 588.228515625 l 1
 1213.90332031 588.228515625 l 1
 1230.25 559.524414062 l 1
 1088.51074219 319 l 1
 1544.88183594 319 l 1
 1544.88183594 281 l 1
EndSplineSet
EndChar

StartChar: R
Encoding: 82 82 18
Width: 1544
Flags: HW
LayerCount: 2
Fore
SplineSet
1544.88183594 319 m 1
 1545.0859375 319 l 1
 1545.0859375 281 l 1
 830.674804688 281 l 2
 822.510742188 256.489257812 799.892578125 238.639648438 772.54296875 238.639648438 c 0
 745.174804688 238.639648438 722.37109375 256.489257812 714.392578125 281 c 2
 504.075195312 281 l 1
 382.857421875 58.8818359375 l 1
 772.357421875 58.8818359375 l 1
 791.153320312 40.0859375 l 1
 779.37109375 -454.489257812 l 1
 765.325195312 -454.489257812 l 1
 754.118164062 21.45703125 l 1
 351.685546875 21.45703125 l 1
 335.357421875 49.0107421875 l 1
 462.0859375 281 l 1
 0 281 l 1
 0 319 l 1
 468.357421875 319 l 1
 335.54296875 562.771484375 l 1
 351.685546875 589.75 l 1
 754.303710938 589.75 l 1
 763.803710938 799.510742188 l 1
 781.096679688 799.510742188 l 1
 790.596679688 589.564453125 l 1
 1192.06445312 589.564453125 l 1
 1207.8359375 562.95703125 l 1
 1074.63183594 319 l 1
 1544.88183594 319 l 1
382.467773438 553.271484375 m 1
 382.282226562 553.271484375 l 1
 510.142578125 319 l 1
 714.20703125 319 l 2
 722.37109375 343.510742188 744.989257812 361.37890625 772.357421875 361.37890625 c 0
 799.70703125 361.37890625 822.510742188 343.510742188 830.489257812 319 c 2
 1034.1640625 319 l 1
 1161.85742188 553.642578125 l 1
 382.467773438 553.271484375 l 1
EndSplineSet
EndChar

StartChar: S
Encoding: 83 83 19
Width: 1544
Flags: HW
LayerCount: 2
Fore
SplineSet
1544.88183594 281.204101562 m 5
 1545.0859375 281.204101562 l 5
 1056.78222656 281.204101562 l 5
 790.20703125 -203.295898438 l 5
 779 -462.653320312 l 5
 763.803710938 -462.653320312 l 5
 752.392578125 -197.989257812 l 5
 752.392578125 -197.989257812 l 5
 752.392578125 -197.989257812 l 5
 753.357421875 242.053710938 l 6
 734.9140625 248.139648438 720.478515625 262.575195312 714.392578125 281 c 6
 0 281 l 5
 0 319 l 5
 714.20703125 319 l 6
 722.37109375 343.510742188 744.989257812 361.37890625 772.357421875 361.37890625 c 4
 799.70703125 361.37890625 822.510742188 343.510742188 830.489257812 319 c 6
 1034.1640625 319 l 5
 1160.52148438 548.911132812 l 5
 352.260742188 548.911132812 l 5
 352.260742188 586.911132812 l 5
 753.728515625 586.911132812 l 5
 762.857421875 1023.91113281 l 5
 782.04296875 1023.91113281 l 5
 791.153320312 586.911132812 l 5
 1192.62109375 586.911132812 l 5
 1209.35742188 558.782226562 l 5
 1077.48925781 319.204101562 l 5
 1544.88183594 319.204101562 l 5
 1544.88183594 281.204101562 l 5
790.392578125 -123.696289062 m 5
 1013.0859375 281.204101562 l 5
 830.303710938 281.204101562 l 6
 824.217773438 262.575195312 809.782226562 248.139648438 791.153320312 242.053710938 c 6
 790.392578125 -123.696289062 l 5
EndSplineSet
EndChar

StartChar: T
Encoding: 84 84 20
Width: 1544
Flags: HW
LayerCount: 2
Fore
SplineSet
1544.88183594 318.795898438 m 1
 1544.88183594 319 l 1
 1544.88183594 281 l 1
 1078.43554688 281 l 1
 1209.35742188 39.5107421875 l 1
 1192.62109375 11.3818359375 l 1
 788.5 11.3818359375 l 1
 780.3359375 -425.04296875 l 1
 756.010742188 -425.04296875 l 1
 751.075195312 11.3818359375 l 1
 352.260742188 11.3818359375 l 1
 335.54296875 39.5107421875 l 1
 468.728515625 281 l 1
 0 281 l 1
 0 319 l 1
 489.435546875 319 l 1
 753.54296875 797.989257812 l 1
 764.174804688 1058.6640625 l 1
 779.37109375 1058.6640625 l 1
 791.357421875 792.6640625 l 1
 789.075195312 783.349609375 l 1
 532.946289062 318.795898438 l 1
 714.20703125 318.795898438 l 2
 722.37109375 343.306640625 744.989257812 361.174804688 772.357421875 361.174804688 c 0
 799.70703125 361.174804688 822.510742188 343.306640625 830.489257812 318.795898438 c 2
 1544.88183594 318.795898438 l 1
1160.89257812 49.1962890625 m 1
 1161.09667969 49.1962890625 l 1
 1035.5 280.795898438 l 1
 830.674804688 280.795898438 l 2
 822.510742188 256.28515625 799.892578125 238.435546875 772.54296875 238.435546875 c 0
 745.174804688 238.435546875 722.37109375 256.28515625 714.392578125 280.795898438 c 2
 512.239257812 280.795898438 l 1
 384.564453125 49.1962890625 l 1
 1160.89257812 49.1962890625 l 1
EndSplineSet
EndChar

StartChar: U
Encoding: 85 85 21
Width: 1545
Flags: HW
LayerCount: 2
Fore
SplineSet
1544.88183594 318.795898438 m 1
 1545.0859375 319 l 1
 1545.0859375 281 l 1
 1059.62109375 281 l 1
 789.260742188 -203.314453125 l 1
 756.010742188 -203.314453125 l 1
 484.87109375 281 l 1
 0 281 l 1
 0 319 l 1
 484.685546875 319 l 1
 754.118164062 799.12109375 l 2
 755.62109375 874.75 758.29296875 950.174804688 762.857421875 1025.59960938 c 2
 781.653320312 1025.59960938 l 1
 790.596679688 904.771484375 790.596679688 783.739257812 791.728515625 662.70703125 c 0
 792.87890625 561.045898438 792.674804688 459.403320312 791.728515625 357.760742188 c 0
 810.153320312 351.674804688 824.403320312 337.239257812 830.489257812 318.795898438 c 2
 1544.88183594 318.795898438 l 1
752.967773438 718.946289062 m 1
 528.381835938 318.795898438 l 1
 714.392578125 318.795898438 l 2
 720.478515625 337.239257812 734.728515625 351.674804688 753.153320312 357.760742188 c 0
 752.596679688 478.217773438 751.631835938 598.489257812 752.967773438 718.946289062 c 1
772.54296875 -155.239257812 m 1
 1016.12890625 280.795898438 l 1
 830.674804688 280.795898438 l 2
 822.510742188 256.28515625 799.892578125 238.435546875 772.54296875 238.435546875 c 0
 745.174804688 238.435546875 722.37109375 256.28515625 714.392578125 280.795898438 c 2
 528.381835938 280.795898438 l 1
 772.54296875 -155.239257812 l 1
EndSplineSet
EndChar

StartChar: V
Encoding: 86 86 22
Width: 1545
Flags: HW
LayerCount: 2
Fore
SplineSet
1544.88183594 318.795898438 m 1
 1545.0859375 319 l 1
 1545.0859375 281 l 1
 1059.62109375 281 l 1
 789.260742188 -203.314453125 l 1
 756.010742188 -203.314453125 l 1
 484.87109375 281 l 1
 0 281 l 1
 0 319 l 1
 484.685546875 319 l 1
 754.118164062 799.12109375 l 2
 755.62109375 874.75 758.29296875 950.174804688 762.857421875 1025.59960938 c 2
 781.653320312 1025.59960938 l 1
 790.596679688 904.771484375 790.596679688 783.739257812 791.728515625 662.70703125 c 0
 792.87890625 561.045898438 792.674804688 459.403320312 791.728515625 357.760742188 c 0
 810.153320312 351.674804688 824.403320312 337.239257812 830.489257812 318.795898438 c 2
 1544.88183594 318.795898438 l 1
752.967773438 718.946289062 m 1
 528.381835938 318.795898438 l 1
 714.392578125 318.795898438 l 2
 720.478515625 337.239257812 734.728515625 351.674804688 753.153320312 357.760742188 c 0
 752.596679688 478.217773438 751.631835938 598.489257812 752.967773438 718.946289062 c 1
772.54296875 -155.239257812 m 1
 1016.12890625 280.795898438 l 1
 830.674804688 280.795898438 l 2
 822.510742188 256.28515625 799.892578125 238.435546875 772.54296875 238.435546875 c 0
 745.174804688 238.435546875 722.37109375 256.28515625 714.392578125 280.795898438 c 2
 528.381835938 280.795898438 l 1
 772.54296875 -155.239257812 l 1
EndSplineSet
EndChar

StartChar: W
Encoding: 87 87 23
Width: 1545
Flags: HW
LayerCount: 2
Fore
SplineSet
1544.88183594 319 m 1
 1545.27148438 319 l 1
 1545.27148438 281 l 1
 1083.76074219 281 l 1
 1213.34667969 43.5 l 1
 1196.62890625 15.37109375 l 1
 794.95703125 15.37109375 l 1
 786.032226562 -460.185546875 l 1
 766.642578125 -460.185546875 l 1
 757.346679688 34.37109375 l 1
 776.346679688 53.37109375 l 1
 1164.51074219 53.37109375 l 1
 1040.25 281 l 1
 830.674804688 281 l 2
 822.510742188 256.489257812 799.892578125 238.62109375 772.54296875 238.62109375 c 0
 745.174804688 238.62109375 722.37109375 256.489257812 714.392578125 281 c 2
 -0 281 l 1
 -0 319 l 1
 468.728515625 319 l 1
 339.142578125 556.87109375 l 1
 355.87890625 584.814453125 l 1
 754.674804688 584.814453125 l 1
 767.79296875 793.814453125 l 1
 784.325195312 793.814453125 l 1
 791.153320312 565.424804688 l 1
 772.153320312 547 l 1
 387.607421875 547 l 1
 511.868164062 319 l 1
 714.20703125 319 l 2
 722.37109375 343.510742188 744.989257812 361.37890625 772.357421875 361.37890625 c 0
 799.70703125 361.37890625 822.510742188 343.510742188 830.489257812 319 c 2
 1544.88183594 319 l 1
EndSplineSet
EndChar

StartChar: X
Encoding: 88 88 24
Width: 1545
Flags: HW
LayerCount: 2
Fore
SplineSet
1544.88183594 319 m 1
 1545.0859375 319 l 1
 1545.0859375 281 l 1
 1059.06445312 281 l 1
 791.728515625 -207.489257812 l 1
 758.107421875 -206.9140625 l 1
 508.825195312 281 l 1
 0 281 l 1
 0 319 l 1
 714.392578125 319 l 2
 720.6640625 337.814453125 735.674804688 352.435546875 754.674804688 358.3359375 c 2
 763.228515625 798.564453125 l 1
 781.653320312 798.564453125 l 1
 785.846679688 588.618164062 l 1
 1192.62109375 588.618164062 l 1
 1209.35742188 560.693359375 l 1
 1079.38183594 319 l 1
 1544.88183594 319 l 1
1160.70703125 550.618164062 m 1
 786.403320312 550.618164062 l 1
 790.20703125 358.3359375 l 2
 809.392578125 352.639648438 824.217773438 337.814453125 830.489257812 319 c 2
 1036.26074219 319 l 1
 1160.70703125 550.618164062 l 1
775.381835938 -157.70703125 m 2
 1015.55371094 281 l 1
 830.489257812 281 l 2
 822.325195312 256.489257812 799.70703125 238.639648438 772.357421875 238.639648438 c 0
 744.989257812 238.639648438 722.185546875 256.489257812 714.20703125 281 c 2
 551.37109375 281 l 1
 775.381835938 -157.70703125 l 2
EndSplineSet
EndChar

StartChar: Y
Encoding: 89 89 25
Width: 1544
Flags: HW
LayerCount: 2
Fore
SplineSet
1544.8828125 318.795898438 m 1
 1544.8828125 319 l 1
 1544.8828125 281 l 1
 1036.07519531 281.204101562 l 1
 786.79296875 -206.9140625 l 1
 753.171875 -207.489257812 l 1
 485.8359375 281 l 1
 0 281 l 1
 0 319 l 1
 465.314453125 319 l 1
 335.54296875 560.5078125 l 1
 352.260742188 588.432617188 l 1
 759.814453125 588.432617188 l 1
 764.564453125 798.37890625 l 1
 780.521484375 798.37890625 l 1
 790.021484375 358.3359375 l 2
 809.021484375 352.639648438 824.026174485 319.001793021 830.303710938 319 c 2
 1544.8828125 318.795898438 l 1
383.989257812 550.432617188 m 1
 508.454101562 319 l 1
 714.411132812 319 l 2
 720.682617188 337.814453125 735.693359375 352.639648438 754.693359375 358.3359375 c 2
 758.868164062 550.432617188 l 1
 383.989257812 550.432617188 l 1
769.314453125 -157.892578125 m 1
 993.510742188 281 l 1
 830.489257812 281 l 2
 822.510742188 256.303710938 799.70703125 238.454101562 772.357421875 238.454101562 c 0
 744.989257812 238.454101562 722.204101562 256.5078125 714.20703125 281 c 2
 529.161132812 281 l 1
 769.314453125 -157.892578125 l 1
EndSplineSet
EndChar

StartChar: Z
Encoding: 90 90 26
Width: 1544
Flags: HW
LayerCount: 2
Fore
SplineSet
1544.8828125 281 m 1
 1545.27246094 281 l 1
 1055.27929688 281 l 1
 791.171875 -197.989257812 l 1
 781.857421875 -458.849609375 l 1
 764.0078125 -458.849609375 l 1
 753.357421875 -192.849609375 l 1
 755.639648438 -183.553710938 l 1
 1011.76855469 281 l 1
 830.5078125 281 l 2
 822.325195312 256.489257812 799.725585938 238.639648438 772.357421875 238.639648438 c 0
 745.0078125 238.639648438 721.596679688 281 714.225585938 281 c 2
 -0 281 l 1
 -0 319 l 1
 466.279296875 319 l 1
 335.357421875 560.489257812 l 1
 352.075195312 588.618164062 l 1
 756.400390625 588.618164062 l 1
 768.572265625 1025.04296875 l 1
 784.529296875 1025.04296875 l 1
 793.268554688 588.618164062 l 1
 1192.26855469 588.618164062 l 1
 1208.98632812 560.489257812 l 1
 1075.98632812 319 l 1
 1544.8828125 319 l 1
 1544.8828125 281 l 1
830.322265625 319 m 1
 830.118164062 319 l 1
 1032.29003906 319 l 1
 1159.96484375 550.618164062 l 1
 383.618164062 550.618164062 l 1
 509.21484375 319 l 1
 714.040039062 319 l 2
 722.204101562 343.510742188 744.822265625 361.37890625 772.171875 361.37890625 c 0
 799.540039062 361.37890625 822.325195312 343.510742188 830.322265625 319 c 1
EndSplineSet
EndChar
